<svg width="765" height="667" viewBox="0 0 765 667" fill="none" xmlns="http://www.w3.org/2000/svg">
<path d="M625.989 284.365C646.936 181.199 580.283 80.5848 477.116 59.6383C373.949 38.6917 273.336 105.344 252.389 208.511C231.442 311.678 298.095 412.292 401.262 433.238C504.429 454.185 605.043 387.532 625.989 284.365Z" fill="#D1DDE8"/>
<path d="M649.673 486.37C692.092 490.075 729.484 458.691 733.189 416.271C736.895 373.852 705.51 336.46 663.091 332.755C620.671 329.049 583.279 360.434 579.574 402.853C575.869 445.273 607.253 482.664 649.673 486.37Z" fill="#E7EDF4"/>
<path d="M278.828 436.468L230.975 333.719L133.211 383.607L181.938 488.565C182.997 491.2 184.362 493.701 186.004 496.018C200.236 516.05 231.946 517.951 256.834 500.271C279.924 483.856 289.011 456.352 278.828 436.468Z" fill="#235196"/>
<path d="M241.636 461.747C247.101 457.87 252.005 453.259 256.21 448.042C255.986 447.542 255.797 447.03 255.547 446.542L236.961 406.635C233.143 411.027 228.815 414.949 224.068 418.316C197.082 437.491 162.71 435.454 147.219 413.79L170.177 463.238C187.314 479.031 217.426 478.948 241.636 461.747Z" fill="#4DD0E1"/>
<path style="mix-blend-mode:multiply" d="M218.24 509.851C216.362 507.198 214.801 504.333 213.591 501.316L157.831 381.218L234.805 341.94L230.976 333.719L133.211 383.607L181.938 488.565C182.997 491.2 184.362 493.701 186.004 496.018C193.621 506.739 206.255 512.212 220.158 512.323C219.493 511.522 218.848 510.707 218.24 509.851Z" fill="url(#paint0_linear)"/>
<path d="M208.78 397.103C233.676 379.42 242.321 348.842 228.089 328.805C213.857 308.768 182.137 306.859 157.242 324.542C132.346 342.226 123.701 372.804 137.933 392.841C152.165 412.878 183.885 414.787 208.78 397.103Z" fill="#235196"/>
<path style="mix-blend-mode:multiply" d="M206.361 393.697C228.92 377.673 236.754 349.965 223.857 331.808C210.961 313.651 182.218 311.922 159.659 327.945C137.1 343.969 129.267 371.677 142.163 389.834C155.059 407.991 183.802 409.72 206.361 393.697Z" fill="url(#paint1_linear)"/>
<path d="M240.594 387.737L241.29 378.615L239.157 378.452C237.722 374.834 235.299 371.691 232.165 369.383C229.03 367.074 225.311 365.693 221.429 365.396C217.548 365.098 213.661 365.897 210.212 367.702C206.763 369.506 203.89 372.243 201.92 375.601L199.787 375.438L199.091 384.557C198.882 387.282 199.212 390.021 200.061 392.619C200.911 395.216 202.264 397.621 204.043 399.696C205.822 401.771 207.992 403.475 210.43 404.711C212.868 405.947 215.525 406.69 218.25 406.899C220.975 407.108 223.715 406.779 226.312 405.929C228.91 405.079 231.315 403.726 233.389 401.947C235.464 400.168 237.168 397.998 238.404 395.56C239.64 393.122 240.384 390.465 240.593 387.74L240.594 387.737Z" fill="#D1DDE8"/>
<path d="M233.923 392.967C242.727 385.577 243.874 372.45 236.484 363.646C229.095 354.842 215.968 353.696 207.164 361.085C198.36 368.474 197.213 381.602 204.603 390.405C211.992 399.209 225.119 400.356 233.923 392.967Z" fill="#E7EDF4"/>
<path d="M200.699 370.804C199.732 373.82 199.487 377.021 199.984 380.149L240.39 383.247C241.356 380.231 241.601 377.03 241.106 373.902L200.699 370.804Z" fill="white"/>
<path d="M210.244 342.656L202.193 338.308L201.177 340.189C197.288 340.028 193.431 340.963 190.048 342.887C186.664 344.811 183.889 347.647 182.038 351.071C180.188 354.496 179.337 358.371 179.582 362.256C179.827 366.141 181.158 369.879 183.425 373.044L182.406 374.927L190.456 379.275C195.311 381.882 201.001 382.458 206.28 380.875C211.558 379.293 215.993 375.682 218.613 370.834C221.232 365.986 221.822 360.297 220.253 355.015C218.684 349.732 215.085 345.288 210.244 342.656Z" fill="#D1DDE8"/>
<path d="M210.614 366.51C208.657 370.131 205.671 373.091 202.032 375.015C198.393 376.939 194.265 377.741 190.171 377.319C186.076 376.897 182.199 375.27 179.029 372.645C175.859 370.019 173.538 366.512 172.361 362.568C171.184 358.624 171.203 354.419 172.416 350.486C173.628 346.552 175.98 343.067 179.174 340.47C182.367 337.873 186.259 336.281 190.358 335.896C194.456 335.511 198.576 336.35 202.197 338.307C207.053 340.931 210.667 345.377 212.245 350.666C213.824 355.954 213.237 361.654 210.614 366.51Z" fill="#E7EDF4"/>
<path d="M178.549 372.215C180.911 374.323 183.734 375.849 186.791 376.67L206.056 341.018C203.695 338.91 200.872 337.385 197.814 336.564L178.549 372.215Z" fill="white"/>
<path d="M188.122 399.83L186.792 390.782L184.675 391.098C182.477 387.886 179.42 385.355 175.854 383.796C172.287 382.236 168.355 381.709 164.503 382.275C160.652 382.842 157.038 384.479 154.072 387C151.106 389.521 148.908 392.825 147.728 396.534L145.614 396.844L146.944 405.893C147.807 411.299 150.767 416.147 155.18 419.387C159.594 422.626 165.107 423.996 170.523 423.199C175.94 422.402 180.824 419.503 184.118 415.129C187.412 410.756 188.849 405.261 188.119 399.835L188.122 399.83Z" fill="#D1DDE8"/>
<path d="M168.292 414.516C179.728 413.364 188.065 403.159 186.913 391.723C185.76 380.287 175.555 371.95 164.119 373.102C152.683 374.255 144.347 384.46 145.499 395.896C146.651 407.332 156.856 415.668 168.292 414.516Z" fill="#E7EDF4"/>
<path d="M145.477 392.123C145.201 395.278 145.669 398.454 146.842 401.396L186.934 395.496C187.21 392.341 186.742 389.165 185.569 386.223L145.477 392.123Z" fill="white"/>
<path d="M233.952 300.987L232.622 291.939L230.505 292.256C228.307 289.044 225.251 286.515 221.685 284.955C218.119 283.396 214.187 282.869 210.336 283.436C206.486 284.002 202.872 285.639 199.906 288.159C196.94 290.679 194.742 293.982 193.562 297.69L191.445 298L192.777 307.048C193.145 309.778 194.05 312.408 195.442 314.785C196.833 317.162 198.683 319.24 200.883 320.897C203.083 322.554 205.59 323.757 208.26 324.438C210.929 325.119 213.706 325.263 216.431 324.862C219.156 324.461 221.775 323.523 224.135 322.102C226.495 320.682 228.549 318.807 230.179 316.586C231.809 314.366 232.981 311.844 233.629 309.167C234.277 306.49 234.387 303.71 233.952 300.99L233.952 300.987Z" fill="#D1DDE8"/>
<path d="M215.06 315.553C210.988 316.152 206.829 315.53 203.111 313.765C199.392 312.001 196.28 309.173 194.168 305.64C192.057 302.107 191.04 298.027 191.247 293.916C191.454 289.805 192.876 285.848 195.332 282.545C197.788 279.242 201.168 276.741 205.045 275.359C208.922 273.977 213.122 273.776 217.114 274.781C221.105 275.786 224.709 277.952 227.47 281.005C230.23 284.058 232.023 287.861 232.623 291.933C233.021 294.637 232.882 297.393 232.215 300.044C231.547 302.694 230.364 305.188 228.734 307.381C227.103 309.574 225.056 311.425 222.71 312.827C220.363 314.229 217.764 315.156 215.06 315.553Z" fill="#E7EDF4"/>
<path d="M191.302 293.28C191.027 296.435 191.494 299.611 192.667 302.553L232.759 296.656C233.038 293.501 232.571 290.325 231.396 287.383L191.302 293.28Z" fill="white"/>
<path d="M190.074 224.919L188.742 215.871L186.626 216.188C184.428 212.975 181.372 210.445 177.805 208.885C174.239 207.325 170.306 206.798 166.455 207.365C162.604 207.932 158.989 209.569 156.023 212.09C153.057 214.611 150.859 217.914 149.68 221.624L147.563 221.934L148.893 230.982C149.697 236.443 152.636 241.361 157.066 244.654C161.495 247.948 167.052 249.347 172.513 248.544C177.974 247.74 182.892 244.801 186.185 240.371C189.479 235.942 190.878 230.385 190.074 224.924L190.074 224.919Z" fill="#D1DDE8"/>
<path d="M171.181 239.488C167.109 240.087 162.951 239.465 159.232 237.701C155.513 235.937 152.401 233.109 150.29 229.576C148.178 226.043 147.161 221.964 147.368 217.853C147.575 213.742 148.996 209.785 151.452 206.482C153.908 203.179 157.288 200.679 161.165 199.297C165.042 197.915 169.242 197.713 173.233 198.718C177.225 199.723 180.828 201.889 183.589 204.942C186.349 207.995 188.142 211.798 188.742 215.87C189.14 218.574 189.001 221.33 188.334 223.98C187.667 226.63 186.484 229.123 184.853 231.316C183.223 233.51 181.176 235.36 178.83 236.762C176.484 238.164 173.885 239.091 171.181 239.488Z" fill="#E7EDF4"/>
<path d="M147.424 217.212C147.148 220.367 147.615 223.543 148.788 226.485L188.881 220.585C189.156 217.43 188.689 214.254 187.516 211.312L147.424 217.212Z" fill="white"/>
<path d="M151.791 271.62L143.994 261.895L141.419 264.331C121.023 254.584 92.9298 262.439 74.3412 284.532C59.5803 302.077 54.7073 323.981 59.8698 341.491L57.2561 343.966L68.8725 357.767L68.8813 357.758C70.0593 359.063 71.3233 360.288 72.6648 361.424C93.0455 378.572 126.834 371.947 148.137 346.627C168.706 322.181 170.062 294.182 151.791 271.62Z" fill="#D1DDE8"/>
<path d="M91.4638 370.184C89.7871 369.89 88.1313 369.487 86.5068 368.979L58.0667 331.709L52.2687 324.116L54.8015 322.167L57.8948 326.22L91.4638 370.184Z" fill="#E7EDF4"/>
<path d="M104.261 370.772C102.976 370.876 101.666 370.955 100.387 370.963L65.5186 325.273L68.0514 323.323L104.261 370.772Z" fill="#E7EDF4"/>
<path d="M115.096 368.728C113.982 369.065 112.849 369.351 111.718 369.591L78.7684 326.431L81.3031 324.482L115.096 368.728Z" fill="#E7EDF4"/>
<path d="M124.648 365.056C123.644 365.523 122.64 365.984 121.638 366.408L92.002 327.59L94.5587 325.642L124.648 365.056Z" fill="#E7EDF4"/>
<path d="M133.229 360.115C132.333 360.711 131.439 361.285 130.523 361.832L105.257 328.745L107.814 326.797L133.229 360.115Z" fill="#E7EDF4"/>
<path d="M140.967 354.041C140.18 354.768 139.373 355.445 138.544 356.119L118.512 329.902L121.068 327.954L140.967 354.041Z" fill="#E7EDF4"/>
<path d="M148.043 346.729C147.343 347.559 146.622 348.387 145.876 349.166L121.325 317.009L123.858 315.06L148.043 346.729Z" fill="#E7EDF4"/>
<path d="M154.327 338.285C153.737 339.222 153.101 340.154 152.444 341.062L122.637 302.007L125.169 300.06L154.327 338.285Z" fill="#E7EDF4"/>
<path d="M159.639 328.505C159.158 329.596 158.655 330.684 158.079 331.744L123.949 287.032L126.481 285.085L159.639 328.505Z" fill="#E7EDF4"/>
<path d="M163.465 316.784C163.18 318.111 162.847 319.431 162.466 320.746L125.259 272.033L127.791 270.085L163.465 316.784Z" fill="#E7EDF4"/>
<path d="M164.573 306.805L129.377 260.722L126.565 257.029L129.098 255.08L134.116 261.666L164.359 301.264C164.55 303.104 164.622 304.955 164.573 306.805Z" fill="#E7EDF4"/>
<path d="M137.479 333.925C158.782 308.605 159.533 274.18 139.154 257.034C118.776 239.887 84.9856 246.513 63.6817 271.833C42.3779 297.153 41.6277 331.578 62.0061 348.724C82.3846 365.871 116.175 359.245 137.479 333.925Z" fill="#E7EDF4"/>
<path d="M133.836 330.862C153.08 307.991 153.791 276.923 135.425 261.469C117.059 246.016 86.5697 252.028 67.3259 274.899C48.0821 297.769 47.3707 328.837 65.7369 344.291C84.1031 359.745 114.592 353.732 133.836 330.862Z" stroke="white" stroke-width="0.999792" stroke-miterlimit="10"/>
<path d="M560.942 603.701L279.262 529.935C275.717 529.007 272.65 526.777 270.674 523.69C268.698 520.604 267.957 516.886 268.599 513.277L340.502 108.738C341.144 105.13 343.121 101.896 346.039 99.6786C348.958 97.4617 352.604 96.4248 356.252 96.7744L646.1 124.594C648.104 124.787 650.046 125.392 651.805 126.373C653.563 127.353 655.099 128.686 656.317 130.289C657.534 131.893 658.407 133.73 658.879 135.687C659.352 137.644 659.414 139.678 659.061 141.66L578.989 592.146C578.636 594.128 577.877 596.015 576.76 597.69C575.642 599.364 574.19 600.788 572.495 601.874C570.8 602.959 568.898 603.682 566.91 603.996C564.921 604.311 562.89 604.21 560.942 603.701Z" fill="#4DD0E1"/>
<path d="M560.8 589.12L284.132 516.667L352.515 131.964L637.204 159.288L560.8 589.12Z" fill="#E7EDF4"/>
<path style="mix-blend-mode:multiply" d="M560.8 589.12L284.132 516.667L352.515 131.964L637.204 159.288L560.8 589.12Z" fill="url(#paint2_linear)"/>
<path d="M637.2 159.286L352.515 131.964C352.515 131.964 286.841 447.842 260.877 466.187L540.001 553.158L637.2 159.286Z" fill="white"/>
<path d="M260.876 466.189C260.876 466.189 230.931 448.342 237.46 405.667L486.079 487.43C486.079 487.43 529.502 595.698 546.369 527.349L540 553.16L260.876 466.189Z" fill="#E7EDF4"/>
<path d="M448.771 132.57C452.709 132.11 455.528 128.546 455.068 124.609C454.608 120.671 451.044 117.852 447.106 118.312C443.169 118.772 440.35 122.336 440.81 126.274C441.27 130.211 444.834 133.03 448.771 132.57Z" fill="#235196"/>
<path d="M550.937 141.316C554.866 140.789 557.625 137.178 557.098 133.249C556.572 129.32 552.961 126.561 549.032 127.088C545.103 127.614 542.344 131.225 542.87 135.154C543.397 139.083 547.008 141.842 550.937 141.316Z" fill="#235196"/>
<path d="M447.94 125.44L443.458 150.652C443.289 151.604 443.32 152.582 443.549 153.521C443.779 154.461 444.201 155.343 444.791 156.11C445.38 156.877 446.122 157.513 446.971 157.978C447.819 158.442 448.755 158.725 449.719 158.807L483.668 161.714L483.872 160.521C484.184 158.725 485.155 157.111 486.595 155.994C488.036 154.878 489.841 154.34 491.658 154.486L494.901 154.744C495.911 154.825 496.894 155.115 497.786 155.596C498.678 156.077 499.46 156.738 500.083 157.537C500.706 158.337 501.156 159.257 501.405 160.239C501.653 161.222 501.694 162.246 501.526 163.245V163.245L537.835 166.356C539.566 166.504 541.29 166 542.668 164.942C544.046 163.884 544.979 162.349 545.283 160.638L549.983 134.198" stroke="#235196" stroke-width="2.99938" stroke-linejoin="round"/>
<path d="M384.796 199.108L564.84 219.629" stroke="#E7EDF4" stroke-width="2.99938" stroke-miterlimit="10" stroke-linecap="round"/>
<path d="M380.018 225.982L560.063 246.503" stroke="#E7EDF4" stroke-width="2.99938" stroke-miterlimit="10" stroke-linecap="round"/>
<path d="M373.218 252.498L553.263 273.019" stroke="#E7EDF4" stroke-width="2.99938" stroke-miterlimit="10" stroke-linecap="round"/>
<path d="M366.418 279.013L546.463 299.534" stroke="#E7EDF4" stroke-width="2.99938" stroke-miterlimit="10" stroke-linecap="round"/>
<path d="M359.618 305.528L539.663 326.049" stroke="#E7EDF4" stroke-width="2.99938" stroke-miterlimit="10" stroke-linecap="round"/>
<path d="M441.048 380.626C440.057 386.199 437.436 391.354 433.516 395.438C429.596 399.522 424.552 402.352 419.024 403.57C413.495 404.788 407.73 404.339 402.456 402.28C397.183 400.221 392.638 396.645 389.398 392.003C386.157 387.362 384.365 381.863 384.249 376.203C384.133 370.543 385.698 364.976 388.747 360.206C391.795 355.435 396.189 351.676 401.374 349.403C406.558 347.13 412.301 346.445 417.874 347.436C421.575 348.093 425.11 349.474 428.278 351.497C431.445 353.521 434.183 356.149 436.335 359.231C438.487 362.313 440.011 365.789 440.819 369.46C441.628 373.131 441.705 376.925 441.048 380.626Z" fill="#E7EDF4"/>
<path d="M358.597 388.933C355.065 383.694 352.655 377.781 351.519 371.565C350.384 365.349 350.548 358.965 352 352.816C352.722 349.844 354.234 346.487 357.238 345.915C361.663 345.064 364.309 350.605 365.322 354.997C366.633 360.665 367.942 366.335 369.247 372.007C369.373 373.107 369.879 374.128 370.676 374.896C374.809 378.005 377.958 365.651 382.598 367.937C385.129 369.188 383.957 373.16 385.31 375.638C386.829 378.424 390.938 378.328 393.837 377.043C396.737 375.758 399.442 373.642 402.616 373.595C405.667 373.547 408.5 375.461 411.552 375.399C416.861 375.292 421.532 369.323 426.5 371.201" stroke="#D1DDE8" stroke-width="2.99938" stroke-miterlimit="10" stroke-linecap="round"/>
<path d="M395.686 548.437L352.888 527.53C351.038 526.626 349.029 526.095 346.975 525.968C344.921 525.841 342.862 526.12 340.915 526.789C338.969 527.457 337.173 528.503 335.63 529.866C334.088 531.228 332.829 532.882 331.926 534.731C331.022 536.58 330.491 538.589 330.364 540.644C330.237 542.698 330.516 544.757 331.185 546.704C331.853 548.65 332.899 550.446 334.262 551.988C335.624 553.531 337.278 554.79 339.127 555.693L381.928 576.602C385.662 578.426 389.969 578.692 393.9 577.342C397.831 575.992 401.064 573.135 402.89 569.401C403.793 567.551 404.324 565.542 404.451 563.487C404.578 561.433 404.299 559.373 403.631 557.427C402.962 555.48 401.916 553.684 400.553 552.141C399.19 550.599 397.536 549.34 395.686 548.437Z" fill="white"/>
<path d="M395.684 548.436L374.285 537.983L360.525 566.149L381.925 576.601C385.66 578.426 389.967 578.692 393.899 577.341C397.83 575.99 401.064 573.132 402.888 569.397C404.713 565.662 404.979 561.355 403.628 557.423C402.277 553.492 399.42 550.258 395.685 548.433L395.684 548.436Z" fill="#235196"/>
<path style="mix-blend-mode:multiply" d="M393.477 568.843L338.146 541.813C335.379 540.465 333.073 538.329 331.517 535.674C330.006 539.353 329.951 543.469 331.364 547.187C332.777 550.905 335.551 553.947 339.124 555.694L381.923 576.603C385.498 578.347 389.602 578.666 393.404 577.495C397.205 576.323 400.419 573.75 402.392 570.296C399.342 570.701 396.241 570.196 393.477 568.843Z" fill="url(#paint3_linear)"/>
<path d="M466.579 499.624L419.789 508.544C415.706 509.323 412.1 511.692 409.763 515.129C407.426 518.567 406.55 522.791 407.328 526.875C407.713 528.897 408.493 530.823 409.623 532.544C410.753 534.264 412.211 535.745 413.914 536.902C415.616 538.06 417.53 538.87 419.545 539.288C421.561 539.705 423.639 539.722 425.661 539.336L472.451 530.413C474.473 530.028 476.399 529.248 478.12 528.119C479.84 526.989 481.321 525.531 482.479 523.829C483.636 522.127 484.446 520.213 484.864 518.198C485.281 516.182 485.298 514.104 484.912 512.082C484.526 510.06 483.746 508.134 482.616 506.414C481.486 504.693 480.029 503.212 478.326 502.055C476.624 500.899 474.71 500.088 472.695 499.671C470.679 499.254 468.601 499.238 466.579 499.624Z" fill="white"/>
<path d="M466.579 499.624L443.183 504.082L449.059 534.877L472.453 530.416C476.536 529.638 480.143 527.269 482.48 523.832C484.817 520.394 485.692 516.169 484.914 512.086C484.135 508.003 481.767 504.396 478.329 502.059C474.892 499.722 470.666 498.847 466.583 499.625L466.579 499.624Z" fill="#235196"/>
<path style="mix-blend-mode:multiply" d="M477.043 517.283L416.552 528.816C413.53 529.396 410.404 529.068 407.568 527.875C408.564 531.726 410.987 535.054 414.347 537.184C417.707 539.314 421.752 540.085 425.66 539.342L472.449 530.419C476.356 529.673 479.832 527.468 482.173 524.252C484.514 521.036 485.543 517.05 485.052 513.103C482.853 515.256 480.067 516.71 477.043 517.283Z" fill="url(#paint4_linear)"/>
<path d="M261.953 124.892L246.222 123.518L247.596 107.788L230.066 106.257L228.692 121.986L212.964 120.613L211.433 138.142L227.164 139.516L225.79 155.246L243.32 156.777L244.694 141.046L260.424 142.42L261.953 124.892Z" fill="#4DD0E1"/>
<path d="M301.083 191.985L290.407 191.053L291.34 180.374L279.438 179.334L278.505 190.013L267.826 189.08L266.786 200.979L277.466 201.912L276.533 212.591L288.435 213.631L289.368 202.952L300.047 203.885L301.083 191.985Z" fill="#235196"/>
<path d="M722.497 200.74L711.818 199.807L712.75 189.128L700.85 188.088L699.917 198.767L689.238 197.835L688.199 209.734L698.878 210.667L697.945 221.346L709.844 222.385L710.777 211.707L721.457 212.64L722.497 200.74Z" fill="#4DD0E1"/>
<path d="M633.533 513.164L727.315 302.09C729.244 297.742 726.838 292.462 721.94 290.286L600.005 236.109C595.108 233.932 589.572 235.688 587.643 240.032L493.859 451.107C491.93 455.455 494.337 460.735 499.234 462.911L621.173 517.088C626.068 519.264 631.604 517.508 633.533 513.164Z" fill="#235196"/>
<g style="mix-blend-mode:multiply" opacity="0.6">
<path d="M633.064 279.313L605.231 267.059C604.028 266.53 602.733 266.242 601.419 266.213C600.104 266.184 598.798 266.414 597.572 266.89C596.347 267.366 595.228 268.079 594.278 268.988C593.328 269.896 592.567 270.983 592.038 272.186C590.968 274.616 590.907 277.371 591.869 279.845C592.83 282.319 594.735 284.31 597.165 285.38L624.998 297.633C626.201 298.163 627.496 298.451 628.811 298.48C630.125 298.509 631.432 298.279 632.657 297.803C633.882 297.327 635.001 296.614 635.951 295.705C636.901 294.796 637.662 293.709 638.192 292.506C638.721 291.303 639.009 290.008 639.038 288.694C639.067 287.38 638.837 286.073 638.361 284.847C637.885 283.622 637.172 282.503 636.263 281.553C635.355 280.603 634.268 279.842 633.064 279.313Z" fill="#235196"/>
</g>
<g style="mix-blend-mode:multiply" opacity="0.6">
<path d="M695.448 307.032L667.614 294.778C666.412 294.248 665.116 293.96 663.802 293.931C662.488 293.902 661.18 294.132 659.955 294.608C658.73 295.084 657.61 295.797 656.661 296.706C655.711 297.615 654.95 298.702 654.421 299.906C653.891 301.108 653.603 302.404 653.573 303.718C653.544 305.032 653.774 306.339 654.25 307.564C654.726 308.789 655.438 309.909 656.347 310.859C657.256 311.808 658.343 312.57 659.546 313.099L687.379 325.352C688.582 325.882 689.877 326.17 691.192 326.2C692.506 326.229 693.813 325.999 695.038 325.523C696.263 325.047 697.382 324.335 698.332 323.426C699.282 322.517 700.043 321.43 700.573 320.227C701.103 319.024 701.391 317.729 701.42 316.415C701.449 315.1 701.22 313.793 700.744 312.568C700.268 311.343 699.555 310.223 698.646 309.273C697.738 308.323 696.651 307.562 695.448 307.032Z" fill="#235196"/>
</g>
<g style="mix-blend-mode:multiply" opacity="0.6">
<path d="M618.448 312.216L590.615 299.962C589.412 299.432 588.117 299.145 586.802 299.116C585.488 299.087 584.181 299.317 582.956 299.793C581.731 300.269 580.612 300.982 579.662 301.891C578.712 302.799 577.951 303.886 577.421 305.089C576.891 306.292 576.604 307.588 576.574 308.902C576.545 310.216 576.775 311.523 577.251 312.748C577.727 313.974 578.44 315.093 579.349 316.043C580.258 316.992 581.345 317.753 582.548 318.283L610.382 330.536C611.585 331.067 612.88 331.355 614.194 331.384C615.508 331.414 616.815 331.184 618.041 330.708C619.266 330.232 620.385 329.519 621.335 328.61C622.285 327.701 623.046 326.614 623.575 325.411C624.106 324.208 624.394 322.912 624.423 321.598C624.452 320.284 624.222 318.976 623.746 317.751C623.27 316.525 622.557 315.406 621.648 314.456C620.739 313.506 619.652 312.745 618.448 312.216Z" fill="#235196"/>
</g>
<g style="mix-blend-mode:multiply" opacity="0.6">
<path d="M680.829 339.932L652.995 327.679C651.792 327.149 650.497 326.861 649.183 326.832C647.869 326.802 646.562 327.032 645.337 327.508C644.112 327.984 642.992 328.697 642.042 329.605C641.093 330.514 640.331 331.601 639.802 332.804C639.272 334.007 638.984 335.303 638.955 336.617C638.926 337.931 639.156 339.238 639.632 340.463C640.108 341.688 640.821 342.808 641.73 343.757C642.639 344.707 643.726 345.468 644.929 345.998L672.762 358.251C673.965 358.781 675.261 359.069 676.574 359.098C677.888 359.127 679.195 358.897 680.421 358.421C681.646 357.945 682.765 357.233 683.715 356.324C684.664 355.416 685.426 354.329 685.956 353.126C686.486 351.923 686.774 350.628 686.803 349.313C686.832 347.999 686.602 346.692 686.126 345.467C685.65 344.242 684.937 343.122 684.028 342.173C683.119 341.223 682.032 340.462 680.829 339.932Z" fill="#235196"/>
</g>
<g style="mix-blend-mode:multiply" opacity="0.6">
<path d="M603.829 345.116L575.996 332.863C574.793 332.333 573.498 332.045 572.184 332.015C570.87 331.986 569.563 332.216 568.337 332.692C567.112 333.168 565.993 333.88 565.043 334.789C564.093 335.698 563.332 336.785 562.803 337.988C562.272 339.191 561.985 340.486 561.955 341.8C561.926 343.114 562.156 344.421 562.632 345.646C563.108 346.872 563.82 347.991 564.729 348.941C565.638 349.89 566.725 350.652 567.928 351.181L595.761 363.435C596.964 363.965 598.259 364.252 599.573 364.282C600.887 364.311 602.194 364.081 603.419 363.605C604.644 363.129 605.764 362.416 606.713 361.508C607.663 360.599 608.425 359.513 608.954 358.31C609.484 357.107 609.772 355.812 609.801 354.498C609.83 353.184 609.6 351.877 609.124 350.652C608.649 349.426 607.936 348.307 607.027 347.357C606.119 346.408 605.032 345.646 603.829 345.116Z" fill="#235196"/>
</g>
<g style="mix-blend-mode:multiply" opacity="0.6">
<path d="M666.211 372.833L638.378 360.578C635.948 359.508 633.193 359.447 630.719 360.409C628.245 361.37 626.254 363.275 625.184 365.705C624.114 368.134 624.054 370.889 625.015 373.364C625.977 375.838 627.882 377.829 630.311 378.898L658.144 391.152C659.347 391.682 660.643 391.97 661.957 391.999C663.271 392.028 664.578 391.798 665.804 391.322C667.029 390.846 668.148 390.133 669.098 389.224C670.047 388.315 670.809 387.228 671.338 386.025C671.868 384.822 672.156 383.527 672.185 382.213C672.214 380.899 671.984 379.592 671.508 378.367C671.032 377.142 670.319 376.022 669.41 375.073C668.501 374.123 667.414 373.362 666.211 372.833Z" fill="#235196"/>
</g>
<g style="mix-blend-mode:multiply" opacity="0.6">
<path d="M588.751 379.054L560.918 366.8C559.715 366.27 558.42 365.982 557.106 365.953C555.792 365.923 554.485 366.153 553.259 366.629C552.034 367.105 550.915 367.818 549.965 368.727C549.015 369.635 548.254 370.722 547.725 371.925C547.195 373.128 546.907 374.424 546.877 375.738C546.848 377.052 547.078 378.359 547.554 379.584C548.03 380.809 548.743 381.929 549.651 382.878C550.56 383.828 551.647 384.589 552.85 385.119L580.683 397.372C581.886 397.903 583.181 398.191 584.495 398.22C585.81 398.25 587.117 398.02 588.342 397.544C589.567 397.068 590.687 396.355 591.636 395.446C592.586 394.537 593.347 393.45 593.877 392.247C594.407 391.044 594.694 389.749 594.724 388.435C594.753 387.121 594.523 385.814 594.047 384.589C593.571 383.364 592.859 382.244 591.95 381.294C591.041 380.345 589.954 379.583 588.751 379.054Z" fill="#235196"/>
</g>
<g style="mix-blend-mode:multiply" opacity="0.6">
<path d="M651.134 406.772L623.3 394.518C622.098 393.988 620.802 393.7 619.488 393.671C618.174 393.641 616.867 393.871 615.642 394.347C614.417 394.823 613.297 395.536 612.348 396.445C611.398 397.353 610.637 398.44 610.107 399.643C609.577 400.846 609.289 402.142 609.26 403.456C609.231 404.77 609.461 406.077 609.937 407.302C610.413 408.527 611.126 409.647 612.035 410.596C612.944 411.546 614.031 412.307 615.234 412.837L643.067 425.09C644.27 425.62 645.566 425.908 646.88 425.937C648.194 425.966 649.501 425.736 650.726 425.26C651.952 424.784 653.071 424.071 654.021 423.162C654.97 422.253 655.732 421.166 656.261 419.963C656.791 418.76 657.079 417.465 657.108 416.151C657.137 414.837 656.907 413.53 656.431 412.305C655.954 411.08 655.242 409.961 654.333 409.011C653.424 408.062 652.337 407.301 651.134 406.772Z" fill="#235196"/>
</g>
<g style="mix-blend-mode:multiply" opacity="0.6">
<path d="M573.798 412.707L545.965 400.453C543.535 399.384 540.78 399.323 538.306 400.284C535.832 401.246 533.841 403.151 532.771 405.58C532.241 406.783 531.954 408.079 531.925 409.393C531.895 410.707 532.126 412.014 532.602 413.239C533.078 414.464 533.791 415.584 534.699 416.533C535.608 417.483 536.695 418.244 537.898 418.774L565.731 431.027C566.934 431.557 568.23 431.845 569.544 431.874C570.858 431.903 572.165 431.673 573.39 431.197C574.615 430.721 575.735 430.008 576.684 429.099C577.634 428.19 578.395 427.103 578.925 425.9C579.455 424.697 579.743 423.402 579.772 422.088C579.801 420.774 579.571 419.467 579.095 418.241C578.619 417.016 577.906 415.897 576.997 414.947C576.088 413.998 575.001 413.236 573.798 412.707Z" fill="#235196"/>
</g>
<g style="mix-blend-mode:multiply" opacity="0.6">
<path d="M636.174 440.425L608.341 428.172C607.138 427.642 605.842 427.354 604.528 427.325C603.214 427.296 601.907 427.526 600.682 428.002C599.456 428.478 598.337 429.191 597.387 430.1C596.438 431.009 595.676 432.096 595.147 433.299C594.617 434.502 594.329 435.797 594.299 437.111C594.27 438.425 594.5 439.732 594.976 440.958C595.452 442.183 596.164 443.302 597.073 444.252C597.982 445.202 599.069 445.963 600.272 446.492L628.105 458.748C629.308 459.278 630.604 459.565 631.918 459.594C633.232 459.623 634.539 459.393 635.764 458.917C636.989 458.441 638.109 457.728 639.058 456.82C640.008 455.911 640.769 454.824 641.299 453.621C641.829 452.418 642.117 451.122 642.146 449.808C642.176 448.494 641.946 447.187 641.47 445.961C640.994 444.736 640.282 443.616 639.373 442.666C638.464 441.717 637.377 440.955 636.174 440.425Z" fill="#235196"/>
</g>
<g style="mix-blend-mode:multiply" opacity="0.6">
<path d="M559.179 445.609L531.345 433.356C530.142 432.826 528.847 432.538 527.533 432.509C526.218 432.479 524.911 432.71 523.686 433.186C522.461 433.662 521.341 434.375 520.392 435.284C519.442 436.193 518.681 437.28 518.152 438.483C517.621 439.686 517.333 440.981 517.304 442.296C517.274 443.61 517.504 444.917 517.98 446.142C518.456 447.367 519.169 448.487 520.078 449.436C520.987 450.386 522.074 451.147 523.277 451.677L551.11 463.93C552.313 464.46 553.608 464.748 554.922 464.777C556.236 464.806 557.543 464.576 558.769 464.1C559.994 463.625 561.113 462.912 562.063 462.003C563.013 461.095 563.774 460.008 564.304 458.805C564.834 457.602 565.122 456.306 565.151 454.992C565.181 453.678 564.951 452.371 564.475 451.145C563.999 449.92 563.287 448.8 562.378 447.85C561.469 446.9 560.382 446.138 559.179 445.609Z" fill="#235196"/>
</g>
<g style="mix-blend-mode:multiply" opacity="0.6">
<path d="M621.562 473.327L593.729 461.073C592.526 460.543 591.23 460.255 589.916 460.226C588.602 460.197 587.295 460.426 586.07 460.902C584.845 461.378 583.726 462.091 582.776 463C581.826 463.908 581.065 464.995 580.535 466.198C579.466 468.628 579.405 471.383 580.366 473.857C581.328 476.331 583.233 478.322 585.662 479.392L613.496 491.645C614.698 492.175 615.994 492.463 617.308 492.492C618.622 492.522 619.929 492.292 621.154 491.816C622.379 491.34 623.499 490.627 624.448 489.719C625.398 488.81 626.159 487.723 626.689 486.52C627.219 485.317 627.507 484.022 627.536 482.708C627.565 481.393 627.335 480.086 626.859 478.861C626.383 477.636 625.67 476.516 624.761 475.567C623.852 474.617 622.765 473.856 621.562 473.327Z" fill="#235196"/>
</g>
<path d="M635.448 273.939L607.615 261.686C606.412 261.156 605.117 260.868 603.803 260.839C602.489 260.81 601.182 261.04 599.956 261.516C598.731 261.993 597.612 262.705 596.662 263.614C595.712 264.523 594.951 265.61 594.422 266.813C593.892 268.016 593.604 269.311 593.575 270.625C593.546 271.939 593.776 273.246 594.252 274.471C594.727 275.696 595.44 276.816 596.349 277.765C597.257 278.715 598.344 279.477 599.547 280.006L627.38 292.26C628.583 292.789 629.878 293.077 631.193 293.106C632.507 293.135 633.814 292.905 635.039 292.429C636.264 291.953 637.383 291.24 638.333 290.331C639.283 289.423 640.044 288.336 640.574 287.133C641.104 285.93 641.391 284.634 641.421 283.32C641.45 282.006 641.22 280.699 640.744 279.474C640.268 278.249 639.555 277.13 638.647 276.18C637.738 275.23 636.651 274.469 635.448 273.939Z" fill="white"/>
<path style="mix-blend-mode:multiply" d="M634.562 287.014L598.578 271.173C596.78 270.383 595.255 269.08 594.195 267.425C593.324 269.811 593.392 272.438 594.388 274.775C595.383 277.111 597.23 278.982 599.554 280.006L627.387 292.259C629.712 293.282 632.338 293.381 634.733 292.537C637.128 291.694 639.113 289.97 640.284 287.717C638.349 288.052 636.358 287.808 634.562 287.014Z" fill="url(#paint5_linear)"/>
<path d="M697.835 301.656L670.001 289.403C668.799 288.873 667.503 288.585 666.189 288.556C664.875 288.526 663.567 288.756 662.342 289.233C661.117 289.709 659.997 290.422 659.048 291.331C658.098 292.24 657.337 293.327 656.808 294.53C656.277 295.733 655.989 297.028 655.96 298.342C655.93 299.657 656.16 300.964 656.636 302.189C657.112 303.414 657.825 304.534 658.734 305.483C659.642 306.433 660.73 307.194 661.933 307.723L689.766 319.977C690.969 320.507 692.264 320.795 693.578 320.824C694.893 320.853 696.199 320.623 697.425 320.147C698.65 319.671 699.769 318.959 700.719 318.05C701.669 317.142 702.43 316.055 702.96 314.852C703.49 313.649 703.778 312.353 703.807 311.039C703.836 309.725 703.606 308.418 703.13 307.193C702.654 305.967 701.942 304.848 701.033 303.898C700.125 302.948 699.038 302.186 697.835 301.656Z" fill="white"/>
<path style="mix-blend-mode:multiply" d="M696.945 314.731L660.961 298.89C659.163 298.1 657.638 296.796 656.579 295.142C655.708 297.527 655.777 300.154 656.772 302.49C657.767 304.826 659.614 306.696 661.937 307.72L689.771 319.973C692.095 320.996 694.721 321.095 697.116 320.252C699.511 319.409 701.496 317.686 702.667 315.433C700.732 315.768 698.741 315.524 696.945 314.731Z" fill="url(#paint6_linear)"/>
<path d="M620.606 307.359L592.772 295.106C591.57 294.576 590.274 294.288 588.96 294.259C587.646 294.23 586.339 294.46 585.114 294.936C583.889 295.413 582.769 296.125 581.819 297.034C580.87 297.943 580.108 299.03 579.579 300.233C579.049 301.436 578.761 302.731 578.732 304.045C578.703 305.36 578.933 306.667 579.409 307.892C579.885 309.117 580.598 310.237 581.507 311.186C582.416 312.136 583.503 312.897 584.706 313.426L612.539 325.682C614.969 326.752 617.723 326.812 620.198 325.851C622.672 324.889 624.663 322.984 625.733 320.555C626.263 319.352 626.55 318.056 626.58 316.742C626.609 315.428 626.379 314.12 625.903 312.895C625.427 311.67 624.714 310.55 623.805 309.6C622.896 308.65 621.809 307.889 620.606 307.359Z" fill="white"/>
<path style="mix-blend-mode:multiply" d="M619.715 320.433L583.731 304.593C581.931 303.804 580.403 302.499 579.342 300.844C578.471 303.23 578.541 305.857 579.536 308.193C580.532 310.529 582.379 312.398 584.702 313.422L612.536 325.677C614.86 326.7 617.487 326.799 619.882 325.955C622.277 325.112 624.262 323.388 625.432 321.135C623.499 321.47 621.51 321.226 619.715 320.433Z" fill="url(#paint7_linear)"/>
<path d="M682.988 335.077L655.155 322.824C653.952 322.294 652.656 322.006 651.342 321.977C650.028 321.947 648.721 322.177 647.496 322.653C646.271 323.129 645.152 323.842 644.202 324.75C643.252 325.659 642.491 326.746 641.961 327.949C641.431 329.152 641.144 330.447 641.115 331.761C641.086 333.075 641.316 334.382 641.792 335.608C642.268 336.833 642.981 337.952 643.89 338.902C644.798 339.851 645.885 340.613 647.088 341.142L674.922 353.396C676.124 353.926 677.42 354.214 678.734 354.243C680.048 354.272 681.355 354.043 682.58 353.567C683.805 353.091 684.925 352.378 685.875 351.469C686.824 350.561 687.586 349.474 688.115 348.271C688.645 347.068 688.933 345.772 688.962 344.458C688.991 343.144 688.761 341.837 688.285 340.612C687.809 339.386 687.096 338.267 686.187 337.317C685.278 336.368 684.191 335.607 682.988 335.077Z" fill="white"/>
<path style="mix-blend-mode:multiply" d="M682.096 348.15L646.112 332.307C644.314 331.516 642.789 330.212 641.729 328.559C640.859 330.944 640.928 333.571 641.924 335.907C642.919 338.243 644.766 340.113 647.09 341.136L674.923 353.39C677.248 354.413 679.875 354.513 682.27 353.669C684.666 352.826 686.651 351.103 687.822 348.849C685.886 349.186 683.894 348.942 682.096 348.15Z" fill="url(#paint8_linear)"/>
<path d="M605.757 340.784L577.924 328.53C576.721 328 575.425 327.712 574.111 327.683C572.797 327.654 571.49 327.884 570.265 328.36C569.04 328.837 567.92 329.549 566.971 330.458C566.021 331.367 565.26 332.454 564.73 333.657C564.2 334.86 563.912 336.156 563.883 337.47C563.854 338.784 564.084 340.091 564.56 341.316C565.036 342.542 565.749 343.661 566.658 344.611C567.567 345.56 568.654 346.322 569.857 346.851L597.691 359.104C598.893 359.634 600.189 359.922 601.503 359.952C602.817 359.981 604.124 359.751 605.349 359.275C606.574 358.799 607.694 358.086 608.643 357.178C609.593 356.269 610.355 355.182 610.884 353.979C611.414 352.776 611.702 351.48 611.731 350.166C611.761 348.852 611.53 347.545 611.054 346.319C610.578 345.094 609.865 343.974 608.956 343.024C608.048 342.075 606.96 341.313 605.757 340.784Z" fill="white"/>
<path style="mix-blend-mode:multiply" d="M604.866 353.853L568.881 338.012C567.083 337.222 565.559 335.918 564.499 334.264C563.628 336.65 563.697 339.277 564.692 341.613C565.688 343.949 567.535 345.819 569.859 346.843L597.692 359.096C600.017 360.119 602.643 360.218 605.038 359.375C607.433 358.532 609.418 356.809 610.589 354.556C608.654 354.891 606.662 354.646 604.866 353.853Z" fill="url(#paint9_linear)"/>
<path d="M668.138 368.497L640.305 356.244C639.102 355.714 637.806 355.426 636.492 355.396C635.178 355.367 633.871 355.597 632.646 356.073C631.421 356.549 630.301 357.261 629.352 358.17C628.402 359.079 627.641 360.166 627.111 361.369C626.581 362.572 626.293 363.867 626.264 365.181C626.235 366.495 626.464 367.802 626.94 369.028C627.416 370.253 628.129 371.372 629.038 372.322C629.946 373.272 631.033 374.033 632.236 374.562L660.07 386.816C661.272 387.346 662.568 387.633 663.882 387.663C665.196 387.692 666.503 387.462 667.728 386.986C668.953 386.51 670.072 385.797 671.022 384.889C671.972 383.98 672.733 382.894 673.263 381.691C673.793 380.488 674.08 379.193 674.11 377.879C674.139 376.565 673.909 375.258 673.433 374.033C672.957 372.808 672.245 371.688 671.336 370.738C670.427 369.789 669.341 369.027 668.138 368.497Z" fill="white"/>
<path style="mix-blend-mode:multiply" d="M667.252 381.571L631.268 365.731C629.47 364.941 627.945 363.636 626.886 361.981C626.014 364.366 626.083 366.994 627.078 369.33C628.073 371.667 629.92 373.537 632.244 374.561L660.078 386.815C662.402 387.837 665.029 387.936 667.424 387.092C669.819 386.249 671.804 384.525 672.974 382.272C671.039 382.607 669.049 382.364 667.252 381.571Z" fill="url(#paint10_linear)"/>
<path d="M590.908 374.198L563.074 361.945C561.872 361.414 560.576 361.126 559.262 361.097C557.948 361.068 556.641 361.298 555.416 361.774C554.19 362.249 553.071 362.962 552.121 363.871C551.172 364.78 550.41 365.867 549.881 367.07C549.351 368.273 549.063 369.568 549.033 370.882C549.004 372.196 549.234 373.503 549.71 374.728C550.186 375.954 550.898 377.073 551.807 378.023C552.716 378.972 553.803 379.734 555.006 380.263L582.839 392.517C584.042 393.047 585.338 393.334 586.652 393.364C587.966 393.393 589.273 393.163 590.498 392.687C591.723 392.211 592.842 391.499 593.792 390.59C594.742 389.681 595.503 388.594 596.033 387.392C597.102 384.962 597.164 382.208 596.202 379.734C595.241 377.259 593.337 375.268 590.908 374.198Z" fill="white"/>
<path style="mix-blend-mode:multiply" d="M590.016 387.273L554.032 371.432C552.234 370.642 550.709 369.338 549.65 367.684C548.779 370.069 548.848 372.696 549.843 375.032C550.838 377.368 552.685 379.237 555.008 380.261L582.842 392.515C585.166 393.537 587.792 393.637 590.187 392.794C592.582 391.95 594.567 390.227 595.738 387.974C593.803 388.309 591.812 388.065 590.016 387.273Z" fill="url(#paint11_linear)"/>
<path d="M653.289 401.917L625.455 389.664C624.253 389.133 622.957 388.846 621.643 388.816C620.329 388.787 619.022 389.017 617.797 389.493C616.572 389.969 615.452 390.681 614.503 391.59C613.553 392.499 612.792 393.586 612.262 394.789C611.732 395.992 611.445 397.287 611.416 398.601C611.387 399.915 611.617 401.222 612.093 402.447C612.569 403.673 613.282 404.792 614.19 405.742C615.099 406.691 616.186 407.453 617.389 407.982L645.222 420.236C646.425 420.766 647.721 421.054 649.035 421.083C650.349 421.112 651.656 420.882 652.882 420.406C654.107 419.93 655.226 419.217 656.176 418.308C657.125 417.399 657.887 416.312 658.416 415.109C658.946 413.906 659.234 412.61 659.263 411.296C659.292 409.982 659.062 408.676 658.586 407.451C658.109 406.225 657.397 405.106 656.488 404.157C655.579 403.207 654.492 402.446 653.289 401.917Z" fill="white"/>
<path style="mix-blend-mode:multiply" d="M652.397 414.99L616.413 399.15C614.615 398.359 613.09 397.055 612.031 395.4C611.159 397.785 611.228 400.413 612.224 402.75C613.219 405.086 615.067 406.957 617.391 407.98L645.225 420.234C647.549 421.257 650.176 421.356 652.572 420.513C654.968 419.669 656.952 417.945 658.123 415.691C656.187 416.027 654.195 415.783 652.397 414.99Z" fill="url(#paint12_linear)"/>
<path d="M576.06 407.618L548.226 395.364C547.024 394.834 545.728 394.546 544.414 394.517C543.1 394.488 541.793 394.718 540.568 395.194C539.343 395.67 538.224 396.382 537.274 397.291C536.324 398.2 535.563 399.286 535.033 400.489C534.503 401.692 534.216 402.988 534.187 404.302C534.158 405.616 534.388 406.923 534.864 408.148C535.34 409.373 536.053 410.493 536.961 411.442C537.87 412.392 538.957 413.153 540.16 413.683L567.993 425.936C569.196 426.467 570.492 426.755 571.806 426.784C573.12 426.813 574.427 426.584 575.652 426.108C576.877 425.632 577.997 424.919 578.946 424.01C579.896 423.101 580.657 422.014 581.187 420.811C581.717 419.608 582.005 418.313 582.034 416.999C582.063 415.685 581.833 414.378 581.357 413.152C580.88 411.927 580.168 410.808 579.259 409.858C578.35 408.908 577.263 408.147 576.06 407.618Z" fill="white"/>
<path style="mix-blend-mode:multiply" d="M575.169 420.692L539.184 404.851C537.386 404.061 535.861 402.756 534.802 401.101C533.93 403.487 533.999 406.115 534.995 408.452C535.99 410.788 537.838 412.658 540.162 413.682L567.995 425.936C570.32 426.958 572.947 427.058 575.343 426.214C577.739 425.371 579.723 423.647 580.894 421.393C578.958 421.729 576.966 421.485 575.169 420.692Z" fill="url(#paint13_linear)"/>
<path d="M638.441 435.336L610.608 423.083C609.405 422.553 608.109 422.265 606.795 422.236C605.481 422.206 604.174 422.436 602.949 422.912C601.724 423.388 600.604 424.101 599.655 425.01C598.705 425.918 597.944 427.005 597.414 428.208C596.884 429.411 596.596 430.706 596.567 432.02C596.538 433.334 596.768 434.641 597.244 435.866C597.72 437.092 598.432 438.211 599.341 439.161C600.25 440.11 601.336 440.872 602.539 441.402L630.373 453.655C631.575 454.185 632.871 454.473 634.185 454.502C635.499 454.531 636.806 454.301 638.032 453.825C639.257 453.349 640.376 452.636 641.326 451.727C642.275 450.818 643.037 449.731 643.566 448.528C644.096 447.325 644.384 446.03 644.413 444.716C644.442 443.402 644.212 442.096 643.736 440.871C643.26 439.646 642.547 438.526 641.639 437.577C640.73 436.627 639.644 435.866 638.441 435.336Z" fill="white"/>
<path style="mix-blend-mode:multiply" d="M637.551 448.41L601.569 432.569C599.771 431.779 598.246 430.475 597.187 428.82C596.315 431.205 596.384 433.832 597.379 436.169C598.374 438.506 600.221 440.376 602.545 441.4L630.379 453.653C632.703 454.676 635.33 454.775 637.725 453.931C640.12 453.088 642.105 451.364 643.275 449.111C641.34 449.447 639.348 449.203 637.551 448.41Z" fill="url(#paint14_linear)"/>
<path d="M561.211 441.038L533.377 428.785C532.175 428.254 530.879 427.967 529.565 427.937C528.251 427.908 526.944 428.138 525.719 428.614C524.494 429.09 523.374 429.802 522.425 430.711C521.475 431.62 520.713 432.707 520.184 433.91C519.654 435.112 519.366 436.408 519.336 437.722C519.307 439.036 519.537 440.343 520.013 441.568C520.489 442.793 521.201 443.913 522.11 444.863C523.019 445.812 524.106 446.574 525.309 447.103L553.142 459.356C554.345 459.886 555.641 460.174 556.955 460.203C558.269 460.232 559.575 460.002 560.801 459.526C562.026 459.051 563.145 458.338 564.095 457.429C565.045 456.521 565.806 455.434 566.336 454.231C566.866 453.029 567.153 451.733 567.182 450.419C567.212 449.105 566.982 447.798 566.506 446.573C566.03 445.348 565.317 444.229 564.409 443.279C563.5 442.329 562.413 441.568 561.211 441.038Z" fill="white"/>
<path style="mix-blend-mode:multiply" d="M560.321 454.111L524.333 438.27C522.534 437.48 521.01 436.176 519.951 434.52C519.079 436.906 519.148 439.533 520.143 441.87C521.138 444.206 522.985 446.077 525.309 447.101L553.143 459.354C555.467 460.377 558.094 460.476 560.489 459.632C562.884 458.789 564.869 457.065 566.039 454.812C564.106 455.148 562.116 454.904 560.321 454.111Z" fill="url(#paint15_linear)"/>
<path d="M623.588 468.754L595.755 456.499C594.552 455.969 593.256 455.682 591.942 455.653C590.628 455.623 589.321 455.854 588.096 456.33C586.871 456.806 585.751 457.519 584.802 458.427C583.852 459.336 583.091 460.423 582.561 461.626C582.031 462.829 581.744 464.125 581.715 465.439C581.686 466.753 581.916 468.06 582.392 469.285C582.868 470.51 583.581 471.629 584.49 472.579C585.398 473.529 586.485 474.29 587.688 474.82L615.522 487.073C616.725 487.603 618.02 487.891 619.334 487.921C620.649 487.95 621.956 487.72 623.181 487.244C624.406 486.767 625.526 486.055 626.475 485.146C627.425 484.237 628.186 483.149 628.715 481.946C629.245 480.743 629.533 479.448 629.562 478.134C629.592 476.82 629.362 475.513 628.885 474.288C628.409 473.063 627.696 471.943 626.787 470.994C625.878 470.044 624.791 469.283 623.588 468.754Z" fill="white"/>
<path style="mix-blend-mode:multiply" d="M622.7 481.829L586.716 465.986C584.917 465.197 583.392 463.893 582.333 462.238C581.462 464.624 581.531 467.252 582.526 469.589C583.522 471.925 585.369 473.795 587.693 474.819L615.527 487.073C617.851 488.095 620.478 488.194 622.873 487.35C625.268 486.507 627.253 484.783 628.423 482.53C626.488 482.865 624.497 482.621 622.7 481.829Z" fill="url(#paint16_linear)"/>
<path d="M643.502 557.02C643.27 559.685 642.252 562.222 640.579 564.308C638.905 566.395 636.65 567.939 634.099 568.744C631.547 569.549 628.815 569.579 626.246 568.831C623.678 568.083 621.389 566.59 619.669 564.541C617.949 562.493 616.875 559.98 616.584 557.32C616.292 554.661 616.795 551.975 618.03 549.602C619.265 547.229 621.176 545.276 623.521 543.989C625.866 542.701 628.54 542.139 631.205 542.372C634.778 542.684 638.081 544.402 640.387 547.149C642.693 549.897 643.814 553.447 643.502 557.02Z" fill="#4DD0E1"/>
<path d="M126.606 466.611C126.374 469.276 125.357 471.812 123.683 473.899C122.01 475.986 119.755 477.529 117.204 478.335C114.653 479.14 111.921 479.17 109.352 478.423C106.784 477.675 104.495 476.182 102.775 474.134C101.055 472.085 99.9815 469.572 99.6896 466.914C99.3976 464.255 99.9007 461.569 101.135 459.196C102.37 456.823 104.28 454.869 106.625 453.582C108.97 452.295 111.644 451.732 114.309 451.965C117.882 452.277 121.184 453.995 123.49 456.742C125.796 459.488 126.917 463.039 126.606 466.611Z" fill="#4DD0E1"/>
<path d="M660.964 587.088C660.84 588.499 660.301 589.842 659.415 590.946C658.528 592.051 657.334 592.868 655.983 593.294C654.632 593.72 653.185 593.735 651.826 593.339C650.466 592.943 649.254 592.152 648.343 591.067C647.433 589.982 646.865 588.651 646.711 587.243C646.556 585.835 646.823 584.413 647.477 583.157C648.131 581.9 649.143 580.866 650.385 580.185C651.627 579.504 653.043 579.206 654.454 579.329C655.391 579.411 656.302 579.677 657.137 580.111C657.971 580.545 658.711 581.14 659.316 581.86C659.92 582.58 660.377 583.413 660.66 584.31C660.943 585.207 661.046 586.151 660.964 587.088Z" fill="#4DD0E1"/>
<path d="M93.3394 440.076C93.2162 441.487 92.6772 442.83 91.7906 443.935C90.9041 445.04 89.7098 445.857 88.3588 446.283C87.0079 446.709 85.5608 446.725 84.2007 446.329C82.8407 445.933 81.6287 445.142 80.7179 444.057C79.8072 442.972 79.2387 441.641 79.0843 440.233C78.9298 438.825 79.1965 437.403 79.8504 436.146C80.5043 434.889 81.5162 433.855 82.7581 433.173C84 432.492 85.4161 432.194 86.8274 432.317C88.7198 432.482 90.469 433.393 91.6902 434.848C92.9115 436.303 93.5047 438.183 93.3394 440.076Z" fill="#4DD0E1"/>
<path opacity="0.7" d="M382.231 637.555C547.818 652.019 682.505 658.58 683.061 652.209C683.618 645.838 549.834 628.948 384.246 614.484C218.658 600.02 83.972 593.459 83.4155 599.83C82.859 606.201 216.643 623.091 382.231 637.555Z" fill="#E7EDF4"/>
<defs>
<linearGradient id="paint0_linear" x1="292.27" y1="461.279" x2="75.7762" y2="414.618" gradientUnits="userSpaceOnUse">
<stop offset="0.002" stop-color="white" stop-opacity="0"/>
<stop offset="1" stop-color="#235196"/>
</linearGradient>
<linearGradient id="paint1_linear" x1="69.8915" y1="347.092" x2="234.073" y2="404.136" gradientUnits="userSpaceOnUse">
<stop offset="0.002" stop-color="white" stop-opacity="0"/>
<stop offset="1" stop-color="#235196"/>
</linearGradient>
<linearGradient id="paint2_linear" x1="558.036" y1="354.473" x2="35.7894" y2="308.855" gradientUnits="userSpaceOnUse">
<stop offset="0.002" stop-color="white" stop-opacity="0"/>
<stop offset="1" stop-color="#235196"/>
</linearGradient>
<linearGradient id="paint3_linear" x1="426.355" y1="432.632" x2="431.995" y2="520.351" gradientUnits="userSpaceOnUse">
<stop offset="0.002" stop-color="white" stop-opacity="0"/>
<stop offset="1" stop-color="#235196"/>
</linearGradient>
<linearGradient id="paint4_linear" x1="486.565" y1="374.469" x2="488.101" y2="460.576" gradientUnits="userSpaceOnUse">
<stop offset="0.002" stop-color="white" stop-opacity="0"/>
<stop offset="1" stop-color="#235196"/>
</linearGradient>
<linearGradient id="paint5_linear" x1="651.211" y1="185.795" x2="653.596" y2="241.38" gradientUnits="userSpaceOnUse">
<stop offset="0.002" stop-color="white" stop-opacity="0"/>
<stop offset="1" stop-color="#235196"/>
</linearGradient>
<linearGradient id="paint6_linear" x1="719.186" y1="191.997" x2="721.572" y2="247.553" gradientUnits="userSpaceOnUse">
<stop offset="0.002" stop-color="white" stop-opacity="0"/>
<stop offset="1" stop-color="#235196"/>
</linearGradient>
<linearGradient id="paint7_linear" x1="647.907" y1="222.226" x2="650.283" y2="277.777" gradientUnits="userSpaceOnUse">
<stop offset="0.002" stop-color="white" stop-opacity="0"/>
<stop offset="1" stop-color="#235196"/>
</linearGradient>
<linearGradient id="paint8_linear" x1="715.891" y1="228.396" x2="718.275" y2="283.976" gradientUnits="userSpaceOnUse">
<stop offset="0.002" stop-color="white" stop-opacity="0"/>
<stop offset="1" stop-color="#235196"/>
</linearGradient>
<linearGradient id="paint9_linear" x1="644.612" y1="258.657" x2="646.987" y2="314.206" gradientUnits="userSpaceOnUse">
<stop offset="0.002" stop-color="white" stop-opacity="0"/>
<stop offset="1" stop-color="#235196"/>
</linearGradient>
<linearGradient id="paint10_linear" x1="712.59" y1="264.838" x2="714.966" y2="320.391" gradientUnits="userSpaceOnUse">
<stop offset="0.002" stop-color="white" stop-opacity="0"/>
<stop offset="1" stop-color="#235196"/>
</linearGradient>
<linearGradient id="paint11_linear" x1="641.309" y1="295.066" x2="643.682" y2="350.634" gradientUnits="userSpaceOnUse">
<stop offset="0.002" stop-color="white" stop-opacity="0"/>
<stop offset="1" stop-color="#235196"/>
</linearGradient>
<linearGradient id="paint12_linear" x1="709.292" y1="301.241" x2="711.665" y2="356.817" gradientUnits="userSpaceOnUse">
<stop offset="0.002" stop-color="white" stop-opacity="0"/>
<stop offset="1" stop-color="#235196"/>
</linearGradient>
<linearGradient id="paint13_linear" x1="637.969" y1="331.499" x2="640.356" y2="387.064" gradientUnits="userSpaceOnUse">
<stop offset="0.002" stop-color="white" stop-opacity="0"/>
<stop offset="1" stop-color="#235196"/>
</linearGradient>
<linearGradient id="paint14_linear" x1="705.988" y1="337.671" x2="708.364" y2="393.224" gradientUnits="userSpaceOnUse">
<stop offset="0.002" stop-color="white" stop-opacity="0"/>
<stop offset="1" stop-color="#235196"/>
</linearGradient>
<linearGradient id="paint15_linear" x1="634.66" y1="367.905" x2="637.045" y2="423.49" gradientUnits="userSpaceOnUse">
<stop offset="0.002" stop-color="white" stop-opacity="0"/>
<stop offset="1" stop-color="#235196"/>
</linearGradient>
<linearGradient id="paint16_linear" x1="702.639" y1="374.094" x2="705.026" y2="429.658" gradientUnits="userSpaceOnUse">
<stop offset="0.002" stop-color="white" stop-opacity="0"/>
<stop offset="1" stop-color="#235196"/>
</linearGradient>
</defs>
</svg>
